<?xml version="1.0" encoding="UTF-8" standalone="no"?>
<!-- Created with Inkscape (http://www.inkscape.org/) -->

<svg
   xmlns:dc="http://purl.org/dc/elements/1.1/"
   xmlns:cc="http://creativecommons.org/ns#"
   xmlns:rdf="http://www.w3.org/1999/02/22-rdf-syntax-ns#"
   xmlns:svg="http://www.w3.org/2000/svg"
   xmlns="http://www.w3.org/2000/svg"
   xmlns:sodipodi="http://sodipodi.sourceforge.net/DTD/sodipodi-0.dtd"
   xmlns:inkscape="http://www.inkscape.org/namespaces/inkscape"
   width="210mm"
   height="297mm"
   viewBox="0 0 744.09448819 1052.3622047"
   id="svg2"
   version="1.1"
   inkscape:version="0.91 r13725"
   sodipodi:docname="logo_1.svg">
  <defs
     id="defs4" />
  <sodipodi:namedview
     id="base"
     pagecolor="#ffffff"
     bordercolor="#666666"
     borderopacity="1.0"
     inkscape:pageopacity="0.0"
     inkscape:pageshadow="2"
     inkscape:zoom="0.49497475"
     inkscape:cx="344.99343"
     inkscape:cy="555.26677"
     inkscape:document-units="px"
     inkscape:current-layer="layer1"
     showgrid="false"
     inkscape:snap-grids="true"
     inkscape:snap-to-guides="true"
     inkscape:snap-page="true"
     inkscape:window-width="1335"
     inkscape:window-height="750"
     inkscape:window-x="31"
     inkscape:window-y="18"
     inkscape:window-maximized="1" />
  <metadata
     id="metadata7">
    <rdf:RDF>
      <cc:Work
         rdf:about="">
        <dc:format>image/svg+xml</dc:format>
        <dc:type
           rdf:resource="http://purl.org/dc/dcmitype/StillImage" />
        <dc:title></dc:title>
      </cc:Work>
    </rdf:RDF>
  </metadata>
  <g
     inkscape:label="Layer 1"
     inkscape:groupmode="layer"
     id="layer1">
    <path
       style="fill:#000000;fill-rule:evenodd;stroke:#000000;stroke-width:3.27122355px;stroke-linecap:butt;stroke-linejoin:miter;stroke-opacity:1;fill-opacity:1"
       d="m 617.28307,311.63383 c 0,0 -28.60718,244.53591 -42.95764,236.2671 0,0 -50.63351,-67.05677 -102.43746,-96.6547 L 360.40129,639.79108 285.18735,673.46944 493.36679,402.50578 c 19.80945,46.88148 45.53223,70.10955 69.39312,100.78526 1.76836,-52.87097 7.68768,-105.74192 -11.56554,-158.61284 22.02957,-20.33962 44.05913,-25.26992 66.0887,-33.04437 z"
       id="path3338"
       inkscape:connector-curvature="0"
       sodipodi:nodetypes="ccccccccc" />
    <path
       style="fill:#000000;fill-rule:evenodd;stroke:#000000;stroke-width:3.27122355px;stroke-linecap:butt;stroke-linejoin:miter;stroke-opacity:1;fill-opacity:1"
       d="m 232.36616,630.76483 37.38966,33.03392 212.87154,-268.72794 -7.78567,-6.43918 c 0,0 -198.4938,198.15804 -242.47553,242.1332 z"
       id="path3344"
       inkscape:connector-curvature="0"
       sodipodi:nodetypes="ccccc" />
    <path
       style="fill:#000000;fill-rule:evenodd;stroke:#000000;stroke-width:3.27122355px;stroke-linecap:butt;stroke-linejoin:miter;stroke-opacity:1;fill-opacity:1"
       d="m 499.77368,487.74948 c 0,0 19.2186,12.61469 22.50694,27.653 1.76266,8.06114 -0.15768,16.07476 -2.04073,24.10859 -2.35053,10.02768 -2.08986,30.82762 -2.08986,30.82762 0,0 -29.79583,-21.46006 -40.94481,-24.11231 0,0 9.7064,-10.97122 13.97929,-28.2378 6.65592,-26.89636 8.58917,-30.2391 8.58917,-30.2391 z"
       id="path3346"
       inkscape:connector-curvature="0"
       sodipodi:nodetypes="csscssc" />
    <path
       style="fill:#000000;fill-rule:evenodd;stroke:#000000;stroke-width:3.27122355px;stroke-linecap:butt;stroke-linejoin:miter;stroke-opacity:1;fill-opacity:1"
       d="m 545.72786,335.43146 -12.85123,-19.861 c 0,0 27.98695,-32.21172 44.37029,-45.72697 18.31261,-15.10681 59.60787,-38.97437 59.60787,-38.97437 0,0 -10.26058,25.0842 -13.0543,36.16592 -3.04777,12.08944 -6.8067,34.51587 -6.8067,34.51587 0,0 -20.82486,5.28027 -31.40493,10.61964 -14.72704,7.43214 -39.861,23.26091 -39.861,23.26091 z"
       id="path3348"
       inkscape:connector-curvature="0"
       sodipodi:nodetypes="ccscscsc" />
    <path
       style="fill:#000000;fill-rule:evenodd;stroke:#000000;stroke-width:3.27122355px;stroke-linecap:butt;stroke-linejoin:miter;stroke-opacity:1;fill-opacity:1"
       d="m 201.66524,577.26834 c 0,0 -0.45709,25.1499 2.79261,37.12775 2.57893,9.50557 4.70359,15.58515 3.63302,25.37602 -1.17021,10.70184 -4.75889,18.85043 -10.77557,26.43093 -16.3999,20.66246 -21.5462,42.19186 -21.5462,42.19186 0,0 -4.98614,-15.26861 -16.88264,-30.88446 -12.58083,-16.51408 -9.14592,-19.02301 -9.14592,-19.02301 0,0 11.83752,-10.49205 28.0389,-36.89691 7.63919,-12.45028 23.8858,-44.32218 23.8858,-44.32218 z"
       id="path3350"
       inkscape:connector-curvature="0"
       sodipodi:nodetypes="cssscscsc" />
    <path
       style="fill:#000000;fill-rule:evenodd;stroke:#000000;stroke-width:3.27122355px;stroke-linecap:butt;stroke-linejoin:miter;stroke-opacity:1;fill-opacity:1"
       d="m 229.07596,649.26094 c 17.19048,16.17134 14.69999,15.69514 36.80127,25.11836 -30.23846,23.81631 -37.07818,51.27304 -46.31866,88.43542 l -36.74312,-45.61584 c 0,0 36.82532,-74.92668 46.26051,-67.93794 z"
       id="path3352"
       inkscape:connector-curvature="0"
       sodipodi:nodetypes="ccccc" />
    <path
       style="fill:#000000;fill-rule:evenodd;stroke:#000000;stroke-width:1px;stroke-linecap:butt;stroke-linejoin:miter;stroke-opacity:1;fill-opacity:1"
       d="M 222.50264,625.04738 210.3808,567.46868 423.52299,395.74275 253.81736,302.80871 c 0,0 147.34126,-37.39926 225.96863,-61.62097 50.19279,-15.46224 151.82842,-13.13032 151.82842,-13.13032 0,0 -48.5087,21.66044 -68.54254,38.57059 -15.17697,12.81055 -39.54377,43.75685 -39.54377,43.75685 0,0 -62.85632,-5.49131 -95.4591,-5.48932 -36.6576,0.002 -109.60188,9.02485 -109.60188,9.02485 0,0 47.64253,26.60297 72.32902,38.16594 24.20342,11.3367 74.1431,30.52443 74.1431,30.52443 z"
       id="path4206"
       inkscape:connector-curvature="0"
       sodipodi:nodetypes="ccccscscscscc" />
    <flowRoot
       xml:space="preserve"
       id="flowRoot4208"
       style="fill:black;stroke:none;stroke-opacity:1;stroke-width:1px;stroke-linejoin:miter;stroke-linecap:butt;fill-opacity:1;font-family:sans-serif;font-style:normal;font-weight:normal;font-size:40px;line-height:125%;letter-spacing:0px;word-spacing:0px"><flowRegion
         id="flowRegion4210"><rect
           id="rect4212"
           width="418.57144"
           height="101.42857"
           x="144.28572"
           y="800.93365" /></flowRegion><flowPara
         id="flowPara4214"></flowPara></flowRoot>  </g>
</svg>
