<?xml version="1.0" encoding="UTF-8" standalone="no"?>
<!-- Created with Inkscape (http://www.inkscape.org/) -->

<svg
   xmlns:dc="http://purl.org/dc/elements/1.1/"
   xmlns:cc="http://creativecommons.org/ns#"
   xmlns:rdf="http://www.w3.org/1999/02/22-rdf-syntax-ns#"
   xmlns:svg="http://www.w3.org/2000/svg"
   xmlns="http://www.w3.org/2000/svg"
   xmlns:sodipodi="http://sodipodi.sourceforge.net/DTD/sodipodi-0.dtd"
   xmlns:inkscape="http://www.inkscape.org/namespaces/inkscape"
   width="210mm"
   height="297mm"
   viewBox="0 0 744.09448819 1052.3622047"
   id="svg2"
   version="1.1"
   inkscape:version="0.91 r13725"
   sodipodi:docname="logo_1_circled.svg">
  <defs
     id="defs4" />
  <sodipodi:namedview
     id="base"
     pagecolor="#ffffff"
     bordercolor="#666666"
     borderopacity="1.0"
     inkscape:pageopacity="0.0"
     inkscape:pageshadow="2"
     inkscape:zoom="0.7"
     inkscape:cx="393.2382"
     inkscape:cy="570.19137"
     inkscape:document-units="px"
     inkscape:current-layer="layer2"
     showgrid="false"
     inkscape:snap-grids="true"
     inkscape:snap-to-guides="true"
     inkscape:snap-page="true"
     inkscape:window-width="1335"
     inkscape:window-height="750"
     inkscape:window-x="31"
     inkscape:window-y="18"
     inkscape:window-maximized="1" />
  <metadata
     id="metadata7">
    <rdf:RDF>
      <cc:Work
         rdf:about="">
        <dc:format>image/svg+xml</dc:format>
        <dc:type
           rdf:resource="http://purl.org/dc/dcmitype/StillImage" />
        <dc:title></dc:title>
      </cc:Work>
    </rdf:RDF>
  </metadata>
  <g
     inkscape:groupmode="layer"
     id="layer2"
     inkscape:label="Layer 2">
    <circle
       style="fill:#3c3c3c;fill-opacity:1;stroke:none;stroke-width:6.7813983;stroke-miterlimit:4;stroke-dasharray:none;stroke-opacity:1"
       id="path4307"
       cx="403.05084"
       cy="489.70724"
       r="265.78958" />
  </g>
  <g
     inkscape:label="Layer 1"
     inkscape:groupmode="layer"
     id="layer1">
    <path
       style="fill:#fff300;fill-opacity:1;fill-rule:evenodd;stroke:#000000;stroke-width:5;stroke-linecap:butt;stroke-linejoin:miter;stroke-miterlimit:4;stroke-dasharray:none;stroke-opacity:1"
       d="m 556.70281,365.91203 c 0,0 -20.999,179.50071 -31.5329,173.43102 0,0 -37.16735,-49.22278 -75.19385,-70.94904 l -81.8364,138.40067 -55.21052,24.72148 151.80322,-198.8999 c 18.50988,21.19889 18.61711,21.62827 41.8464,47.71709 -5.45919,-77.53831 0,0 -5.45919,-77.53831 16.17072,-14.93022 39.41251,-31.1762 55.58324,-36.88301 z"
       id="path3338"
       inkscape:connector-curvature="0"
       sodipodi:nodetypes="ccccccccc" />
    <path
       style="fill:#fff300;fill-opacity:1;fill-rule:evenodd;stroke:#000000;stroke-width:5;stroke-linecap:butt;stroke-linejoin:miter;stroke-miterlimit:4;stroke-dasharray:none;stroke-opacity:1"
       d="m 281.227,596.63347 23.40514,18.69259 153.99308,-189.02002 -5.95488,-5.32365 c 0,0 -139.15871,143.37127 -171.44334,175.65108 z"
       id="path3344"
       inkscape:connector-curvature="0"
       sodipodi:nodetypes="ccccc" />
    <path
       style="fill:#fff300;fill-opacity:1;fill-rule:evenodd;stroke:#000000;stroke-width:5;stroke-linecap:butt;stroke-linejoin:miter;stroke-opacity:1;stroke-miterlimit:4;stroke-dasharray:none"
       d="m 470.44546,495.18909 c 0,0 14.10735,9.25977 16.52114,20.29859 1.29388,5.91725 -0.11574,11.79962 -1.49799,17.69682 -1.7254,7.36078 -1.53405,22.62891 -1.53405,22.62891 0,0 -21.87152,-15.75268 -30.05539,-17.69956 0,0 7.12495,-8.05338 10.26145,-20.72785 4.88575,-19.74318 6.30484,-22.19691 6.30484,-22.19691 z"
       id="path3346"
       inkscape:connector-curvature="0"
       sodipodi:nodetypes="csscssc" />
    <path
       style="fill:#fff300;fill-opacity:1;fill-rule:evenodd;stroke:#000000;stroke-width:5;stroke-linecap:butt;stroke-linejoin:miter;stroke-miterlimit:4;stroke-dasharray:none;stroke-opacity:1"
       d="m 498.62212,392.97705 -1.85725,-19.12459 c 0,0 18.52342,-28.69566 30.54955,-38.61648 13.4423,-11.0891 43.75494,-28.60899 43.75494,-28.60899 0,0 -7.53174,18.41296 -9.58246,26.54746 -2.23721,8.87421 -4.99643,25.33625 -4.99643,25.33625 0,0 -15.28642,3.87596 -23.05268,7.79531 -10.81033,5.45553 -34.81567,26.67104 -34.81567,26.67104 z"
       id="path3348"
       inkscape:connector-curvature="0"
       sodipodi:nodetypes="ccscscsc" />
    <path
       style="fill:#fff300;fill-opacity:1;fill-rule:evenodd;stroke:#000000;stroke-width:5;stroke-linecap:butt;stroke-linejoin:miter;stroke-opacity:1;stroke-miterlimit:4;stroke-dasharray:none"
       d="m 251.62003,560.90009 c 0,0 -0.33552,18.46119 2.04991,27.25349 1.89305,6.97753 3.45265,11.44023 2.6668,18.62718 -0.85898,7.85565 -3.49324,13.83709 -7.90976,19.40153 -12.03829,15.1672 -15.81592,30.97078 -15.81592,30.97078 0,0 -3.66005,-11.20787 -12.39264,-22.67063 -9.23491,-12.1221 -6.71353,-13.96377 -6.71353,-13.96377 0,0 8.68929,-7.70165 20.58186,-27.08404 5.60752,-9.13909 17.53328,-32.53454 17.53328,-32.53454 z"
       id="path3350"
       inkscape:connector-curvature="0"
       sodipodi:nodetypes="cssscscsc" />
    <path
       style="fill:#fff300;fill-opacity:1;fill-rule:evenodd;stroke:#000000;stroke-width:5;stroke-linecap:butt;stroke-linejoin:miter;stroke-opacity:1;stroke-miterlimit:4;stroke-dasharray:none"
       d="m 271.74077,613.746 c 12.61861,11.87051 10.79048,11.52096 27.01384,18.43804 -22.19643,17.48228 -27.2171,37.63679 -34.00004,64.9157 L 237.78341,663.6156 c 0,0 27.0315,-54.99966 33.95736,-49.8696 z"
       id="path3352"
       inkscape:connector-curvature="0"
       sodipodi:nodetypes="ccccc" />
    <path
       style="fill:#fff300;fill-opacity:1;fill-rule:evenodd;stroke:#000000;stroke-width:5;stroke-linecap:butt;stroke-linejoin:miter;stroke-miterlimit:4;stroke-dasharray:none;stroke-opacity:1"
       d="m 266.91565,595.97212 -8.89799,-42.26544 156.45626,-126.0548 c 0,0 -82.12973,-58.19245 -107.42895,-65.36076 0,0 91.01246,-30.30993 148.7286,-48.08979 36.84384,-11.35 97.81205,-9.63826 97.81205,-9.63826 0,0 -27.02135,14.38454 -41.72712,26.79737 -11.1406,9.40354 -24.98634,39.6957 -24.98634,39.6957 -104.05726,4.61559 0,0 -104.05726,4.61559 0,0 11.79458,7.83697 30.36442,21.44957 16.73149,12.265 31.69605,20.89113 31.69605,20.89113 z"
       id="path4206"
       inkscape:connector-curvature="0"
       sodipodi:nodetypes="cccsscsccscc" />
    <flowRoot
       xml:space="preserve"
       id="flowRoot4208"
       style="font-style:normal;font-weight:normal;font-size:40px;line-height:125%;font-family:sans-serif;letter-spacing:0px;word-spacing:0px;fill:#000000;fill-opacity:1;stroke:none;stroke-width:1px;stroke-linecap:butt;stroke-linejoin:miter;stroke-opacity:1"
       transform="matrix(0.73404641,0,0,0.73404641,103.58839,137.15834)"><flowRegion
         id="flowRegion4210"><rect
           id="rect4212"
           width="418.57144"
           height="101.42857"
           x="144.28572"
           y="800.93365" /></flowRegion><flowPara
         id="flowPara4214"></flowPara></flowRoot>  </g>
</svg>
